<svg width="354" height="88" viewBox="0 0 354 88" fill="none" xmlns="http://www.w3.org/2000/svg">
<path d="M20.5333 65.5333C16.8889 65.5333 13.5556 64.6222 10.5333 62.8C7.51111 60.9333 5.08889 58.4444 3.26666 55.3333C1.48889 52.2222 0.599998 48.7778 0.599998 45C0.599998 41.2222 1.48889 37.7778 3.26666 34.6667C5.08889 31.5556 7.51111 29.0889 10.5333 27.2667C13.5556 25.4 16.8889 24.4667 20.5333 24.4667C23.2889 24.4667 25.8667 24.9778 28.2667 26C30.7111 27.0222 32.8222 28.4444 34.6 30.2667V25H41.2667V65H34.6V59.7333C32.8222 61.5111 30.7111 62.9333 28.2667 64C25.8667 65.0222 23.2889 65.5333 20.5333 65.5333ZM21.4667 59C24 59 26.2889 58.3778 28.3333 57.1333C30.4222 55.8444 32.0667 54.1556 33.2667 52.0667C34.5111 49.9333 35.1333 47.5778 35.1333 45C35.1333 42.4222 34.5111 40.0889 33.2667 38C32.0667 35.8667 30.4222 34.1778 28.3333 32.9333C26.2889 31.6444 24 31 21.4667 31C18.9333 31 16.6222 31.6444 14.5333 32.9333C12.4889 34.1778 10.8444 35.8667 9.6 38C8.4 40.0889 7.8 42.4222 7.8 45C7.8 47.5778 8.4 49.9333 9.6 52.0667C10.8444 54.1556 12.4889 55.8444 14.5333 57.1333C16.6222 58.3778 18.9333 59 21.4667 59Z" fill="black"/>
<path d="M80.7583 65.5333C77.1139 65.5333 73.7806 64.6222 70.7583 62.8C67.7361 60.9333 65.3139 58.4444 63.4917 55.3333C61.7139 52.2222 60.825 48.7778 60.825 45C60.825 41.2222 61.7139 37.7778 63.4917 34.6667C65.3139 31.5556 67.7361 29.0889 70.7583 27.2667C73.7806 25.4 77.1139 24.4667 80.7583 24.4667C83.3806 24.4667 85.8472 24.9333 88.1583 25.8667C90.4694 26.8 92.5139 28.0889 94.2917 29.7333V0.999998H101.492V65H94.825V59.7333C93.0472 61.5111 90.9361 62.9333 88.4917 64C86.0917 65.0222 83.5139 65.5333 80.7583 65.5333ZM81.6917 59C84.225 59 86.5139 58.3778 88.5583 57.1333C90.6472 55.8444 92.2917 54.1556 93.4917 52.0667C94.7361 49.9333 95.3583 47.5778 95.3583 45C95.3583 42.4222 94.7361 40.0889 93.4917 38C92.2917 35.8667 90.6472 34.1778 88.5583 32.9333C86.5139 31.6444 84.225 31 81.6917 31C79.1583 31 76.8472 31.6444 74.7583 32.9333C72.7139 34.1778 71.0694 35.8667 69.825 38C68.625 40.0889 68.025 42.4222 68.025 45C68.025 47.5778 68.625 49.9333 69.825 52.0667C71.0694 54.1556 72.7139 55.8444 74.7583 57.1333C76.8472 58.3778 79.1583 59 81.6917 59Z" fill="black"/>
<path d="M138.45 67L118.25 25H126.45L134.583 42.3333C135.339 43.8889 136.05 45.4222 136.717 46.9333C137.383 48.4444 138.028 50.2889 138.65 52.4667C139.317 50.2889 139.983 48.4444 140.65 46.9333C141.361 45.3778 142.072 43.8444 142.783 42.3333L150.983 25H158.65L138.45 67Z" fill="black"/>
<path d="M175.45 65V25H182.65V65H175.45ZM179.05 17.8C177.717 17.8 176.583 17.3333 175.65 16.4C174.717 15.4667 174.25 14.3333 174.25 13C174.25 11.6222 174.717 10.4889 175.65 9.6C176.583 8.66666 177.717 8.2 179.05 8.2C180.428 8.2 181.561 8.66666 182.45 9.6C183.383 10.4889 183.85 11.6222 183.85 13C183.85 14.3333 183.383 15.4667 182.45 16.4C181.561 17.3333 180.428 17.8 179.05 17.8Z" fill="black"/>
<path d="M215.352 65.8C213.308 65.8 211.108 65.4222 208.752 64.6667C206.441 63.8667 204.441 62.5556 202.752 60.7333L204.752 52.8667C205.997 54.9556 207.597 56.6222 209.552 57.8667C211.508 59.0667 213.597 59.6667 215.819 59.6667C217.952 59.6667 219.552 59.1556 220.619 58.1333C221.685 57.0667 222.219 55.7778 222.219 54.2667C222.219 52.5333 221.641 51.2667 220.485 50.4667C219.374 49.6667 218.374 49.1111 217.485 48.8L212.085 46.7333C211.108 46.3333 209.93 45.7556 208.552 45C207.174 44.2 205.974 43.0667 204.952 41.6C203.93 40.1333 203.419 38.2222 203.419 35.8667C203.419 33.7333 203.93 31.7778 204.952 30C205.974 28.2222 207.419 26.8222 209.285 25.8C211.152 24.7333 213.352 24.2 215.885 24.2C217.885 24.2 219.974 24.5556 222.152 25.2667C224.33 25.9778 226.174 27.1778 227.685 28.8667L225.685 36.7333C224.619 34.7778 223.174 33.2222 221.352 32.0667C219.53 30.9111 217.641 30.3333 215.685 30.3333C213.863 30.3333 212.419 30.8444 211.352 31.8667C210.33 32.8889 209.819 34.0667 209.819 35.4C209.819 36.4667 210.174 37.4222 210.885 38.2667C211.597 39.1111 212.663 39.8 214.085 40.3333L219.485 42.4C220.463 42.7556 221.663 43.3333 223.085 44.1333C224.552 44.9333 225.841 46.0889 226.952 47.6C228.063 49.1111 228.619 51.1556 228.619 53.7333C228.619 57.3333 227.352 60.2444 224.819 62.4667C222.33 64.6889 219.174 65.8 215.352 65.8Z" fill="black"/>
<path d="M248.65 65V25H255.85V65H248.65ZM252.25 17.8C250.917 17.8 249.783 17.3333 248.85 16.4C247.917 15.4667 247.45 14.3333 247.45 13C247.45 11.6222 247.917 10.4889 248.85 9.6C249.783 8.66666 250.917 8.2 252.25 8.2C253.628 8.2 254.761 8.66666 255.65 9.6C256.583 10.4889 257.05 11.6222 257.05 13C257.05 14.3333 256.583 15.4667 255.65 16.4C254.761 17.3333 253.628 17.8 252.25 17.8Z" fill="black"/>
<path d="M282.885 65V31H273.819V25H283.085V13.5333C283.085 9.17778 284.374 5.86666 286.952 3.6C289.53 1.33333 292.597 0.199999 296.152 0.199999C297.485 0.199999 298.841 0.355555 300.219 0.666666C301.641 0.977777 302.974 1.51111 304.219 2.26666L302.485 9.26667C300.619 7.22222 298.441 6.2 295.952 6.2C294.441 6.2 293.041 6.71111 291.752 7.73333C290.508 8.75555 289.885 10.7333 289.885 13.6667V25H299.819V31H290.085V65H282.885Z" fill="black"/>
<path d="M316.152 85L329.152 59.1333L312.219 25H320.352L328.885 42.3333C329.641 43.8889 330.374 45.4222 331.085 46.9333C331.797 48.4444 332.508 50.2667 333.219 52.4C333.974 50.2667 334.685 48.4444 335.352 46.9333C336.063 45.3778 336.819 43.8444 337.619 42.3333L346.285 25H353.952L323.952 85H316.152Z" fill="black"/>
<path d="M185 13C185 16.3137 182.314 19 179 19C175.686 19 173 16.3137 173 13C173 9.68629 175.686 7 179 7C182.314 7 185 9.68629 185 13Z" fill="#FE7F00"/>
<path d="M259 13C259 16.3137 256.314 19 253 19C249.686 19 247 16.3137 247 13C247 9.68629 249.686 7 253 7C256.314 7 259 9.68629 259 13Z" fill="#FE7F00"/>
<path d="M6.3 87L12.65 71.5H12.6833L19.0333 87H17.0167L15.25 82.55H10L8.21667 87H6.3ZM10.6333 80.9667H14.6167L13.4333 78C13.2889 77.6222 13.15 77.25 13.0167 76.8833C12.8833 76.5167 12.75 76.0778 12.6167 75.5667C12.4833 76.0778 12.3556 76.5167 12.2333 76.8833C12.1111 77.2389 11.9722 77.6111 11.8167 78L10.6333 80.9667Z" fill="#6D6B6B" fill-opacity="0.98"/>
<path d="M24.0359 87V72H25.9359V87H24.0359Z" fill="#6D6B6B" fill-opacity="0.98"/>
<path d="M38.8203 73.7V72H48.7203V73.7H44.7203V87H42.8203V73.7H38.8203Z" fill="#6D6B6B" fill-opacity="0.98"/>
<path d="M54.0281 87V72H55.9281V76.9H61.2615V72H63.1615V87H61.2615V78.6H55.9281V87H54.0281Z" fill="#6D6B6B" fill-opacity="0.98"/>
<path d="M67.9641 87L74.3141 71.5H74.3474L80.6974 87H78.6807L76.9141 82.55H71.6641L69.8807 87H67.9641ZM72.2974 80.9667H76.2807L75.0974 78C74.953 77.6222 74.8141 77.25 74.6807 76.8833C74.5474 76.5167 74.4141 76.0778 74.2807 75.5667C74.1474 76.0778 74.0196 76.5167 73.8974 76.8833C73.7752 77.2389 73.6363 77.6111 73.4807 78L72.2974 80.9667Z" fill="#6D6B6B" fill-opacity="0.98"/>
<path d="M82.2078 73.7V72H92.1078V73.7H88.1078V87H86.2078V73.7H82.2078Z" fill="#6D6B6B" fill-opacity="0.98"/>
<path d="M111.541 87.3C110.463 87.3 109.447 87.1 108.491 86.7C107.547 86.2889 106.713 85.7278 105.991 85.0167C105.28 84.3056 104.719 83.4778 104.308 82.5333C103.908 81.5889 103.708 80.5778 103.708 79.5C103.708 78.4222 103.908 77.4111 104.308 76.4667C104.719 75.5222 105.28 74.6944 105.991 73.9833C106.713 73.2722 107.547 72.7167 108.491 72.3167C109.447 71.9056 110.463 71.7 111.541 71.7C112.63 71.7 113.647 71.9056 114.591 72.3167C115.536 72.7167 116.363 73.2722 117.074 73.9833C117.797 74.6944 118.358 75.5222 118.758 76.4667C119.169 77.4111 119.374 78.4222 119.374 79.5C119.374 80.5778 119.169 81.5889 118.758 82.5333C118.358 83.4778 117.797 84.3056 117.074 85.0167C116.363 85.7278 115.536 86.2889 114.591 86.7C113.647 87.1 112.63 87.3 111.541 87.3ZM111.541 85.5C112.641 85.5 113.636 85.2333 114.524 84.7C115.413 84.1556 116.113 83.4278 116.624 82.5167C117.147 81.6056 117.408 80.6 117.408 79.5C117.408 78.3889 117.147 77.3833 116.624 76.4833C116.113 75.5722 115.413 74.85 114.524 74.3167C113.636 73.7722 112.641 73.5 111.541 73.5C110.441 73.5 109.447 73.7722 108.558 74.3167C107.68 74.85 106.98 75.5722 106.458 76.4833C105.936 77.3833 105.674 78.3889 105.674 79.5C105.674 80.6 105.936 81.6056 106.458 82.5167C106.98 83.4278 107.68 84.1556 108.558 84.7C109.447 85.2333 110.441 85.5 111.541 85.5Z" fill="#6D6B6B" fill-opacity="0.98"/>
<path d="M124.88 87V72H128.596C129.585 72 130.419 72.15 131.096 72.45C131.785 72.75 132.341 73.1444 132.763 73.6333C133.185 74.1111 133.491 74.6333 133.68 75.2C133.88 75.7667 133.98 76.3222 133.98 76.8667C133.98 77.4 133.885 77.95 133.696 78.5167C133.507 79.0833 133.202 79.6111 132.78 80.1C132.357 80.5889 131.802 80.9833 131.113 81.2833C130.424 81.5833 129.585 81.7333 128.596 81.7333H126.78V87H124.88ZM126.78 80.0333H128.496C129.396 80.0333 130.107 79.8778 130.63 79.5667C131.152 79.2444 131.524 78.8444 131.746 78.3667C131.969 77.8778 132.08 77.3778 132.08 76.8667C132.08 76.3778 131.969 75.8889 131.746 75.4C131.535 74.9111 131.169 74.5056 130.646 74.1833C130.135 73.8611 129.419 73.7 128.496 73.7H126.78V80.0333Z" fill="#6D6B6B" fill-opacity="0.98"/>
<path d="M139.28 87V72H146.68V73.7H141.18V76.9H145.513V78.6H141.18V85.3H146.68V87H139.28Z" fill="#6D6B6B" fill-opacity="0.98"/>
<path d="M164.48 87.5L153.98 76.25V87H152.18V71.5L162.68 82.75V72H164.48V87.5Z" fill="#6D6B6B" fill-opacity="0.98"/>
<path d="M174.313 87.2C173.424 87.2 172.619 87.0222 171.896 86.6667C171.185 86.3111 170.619 85.8778 170.196 85.3667L170.746 83.0667C171.057 83.6889 171.524 84.25 172.146 84.75C172.769 85.25 173.513 85.5 174.38 85.5C175.169 85.5 175.819 85.25 176.33 84.75C176.852 84.25 177.113 83.6333 177.113 82.9C177.113 82.3667 176.985 81.9278 176.73 81.5833C176.474 81.2389 176.185 80.9667 175.863 80.7667C175.541 80.5667 175.285 80.4222 175.096 80.3333L173.263 79.4C172.974 79.2444 172.613 79.0278 172.18 78.75C171.757 78.4722 171.385 78.0889 171.063 77.6C170.741 77.1111 170.58 76.4778 170.58 75.7C170.58 74.9444 170.752 74.2722 171.096 73.6833C171.452 73.0944 171.941 72.6333 172.563 72.3C173.196 71.9667 173.919 71.8 174.73 71.8C175.53 71.8 176.235 71.9444 176.846 72.2333C177.457 72.5111 177.935 72.8 178.28 73.1L177.73 75.4C177.452 74.9333 177.041 74.4944 176.496 74.0833C175.952 73.6722 175.335 73.4667 174.646 73.4667C173.98 73.4667 173.446 73.6667 173.046 74.0667C172.646 74.4556 172.446 74.9389 172.446 75.5167C172.446 75.9611 172.546 76.3278 172.746 76.6167C172.957 76.9056 173.191 77.1333 173.446 77.3C173.713 77.4667 173.93 77.5944 174.096 77.6833L175.963 78.6167C176.185 78.7278 176.463 78.8833 176.796 79.0833C177.141 79.2833 177.48 79.55 177.813 79.8833C178.146 80.2056 178.424 80.6056 178.646 81.0833C178.869 81.55 178.98 82.1167 178.98 82.7833C178.98 83.6389 178.774 84.4 178.363 85.0667C177.963 85.7333 177.413 86.2556 176.713 86.6333C176.013 87.0111 175.213 87.2 174.313 87.2Z" fill="#6D6B6B" fill-opacity="0.98"/>
<path d="M191.864 87V72H196.064C197.02 72 197.775 72.1889 198.331 72.5667C198.897 72.9444 199.303 73.4056 199.547 73.95C199.792 74.4833 199.914 74.9889 199.914 75.4667C199.914 76.0111 199.786 76.5111 199.531 76.9667C199.286 77.4111 198.953 77.7778 198.531 78.0667C199.342 78.4333 199.997 78.9833 200.497 79.7167C201.009 80.45 201.264 81.2833 201.264 82.2167C201.264 83.0056 201.064 83.7667 200.664 84.5C200.275 85.2333 199.692 85.8333 198.914 86.3C198.147 86.7667 197.197 87 196.064 87H191.864ZM193.764 85.3H195.931C196.753 85.3 197.414 85.1389 197.914 84.8167C198.414 84.4944 198.781 84.0889 199.014 83.6C199.247 83.1111 199.364 82.6278 199.364 82.15C199.364 81.6833 199.253 81.2056 199.031 80.7167C198.809 80.2278 198.447 79.8222 197.947 79.5C197.447 79.1667 196.775 79 195.931 79H193.764V85.3ZM193.764 77.4H195.914C196.57 77.4 197.097 77.2444 197.497 76.9333C197.909 76.6111 198.114 76.1556 198.114 75.5667C198.114 74.9556 197.914 74.4944 197.514 74.1833C197.114 73.8611 196.603 73.7 195.981 73.7H193.764V77.4Z" fill="#6D6B6B" fill-opacity="0.98"/>
<path d="M213.49 87.3C212.412 87.3 211.395 87.1 210.44 86.7C209.495 86.2889 208.662 85.7278 207.94 85.0167C207.228 84.3056 206.667 83.4778 206.256 82.5333C205.856 81.5889 205.656 80.5778 205.656 79.5C205.656 78.4222 205.856 77.4111 206.256 76.4667C206.667 75.5222 207.228 74.6944 207.94 73.9833C208.662 73.2722 209.495 72.7167 210.44 72.3167C211.395 71.9056 212.412 71.7 213.49 71.7C214.578 71.7 215.595 71.9056 216.54 72.3167C217.484 72.7167 218.312 73.2722 219.023 73.9833C219.745 74.6944 220.306 75.5222 220.706 76.4667C221.117 77.4111 221.323 78.4222 221.323 79.5C221.323 80.5778 221.117 81.5889 220.706 82.5333C220.306 83.4778 219.745 84.3056 219.023 85.0167C218.312 85.7278 217.484 86.2889 216.54 86.7C215.595 87.1 214.578 87.3 213.49 87.3ZM213.49 85.5C214.59 85.5 215.584 85.2333 216.473 84.7C217.362 84.1556 218.062 83.4278 218.573 82.5167C219.095 81.6056 219.356 80.6 219.356 79.5C219.356 78.3889 219.095 77.3833 218.573 76.4833C218.062 75.5722 217.362 74.85 216.473 74.3167C215.584 73.7722 214.59 73.5 213.49 73.5C212.39 73.5 211.395 73.7722 210.506 74.3167C209.628 74.85 208.928 75.5722 208.406 76.4833C207.884 77.3833 207.623 78.3889 207.623 79.5C207.623 80.6 207.884 81.6056 208.406 82.5167C208.928 83.4278 209.628 84.1556 210.506 84.7C211.395 85.2333 212.39 85.5 213.49 85.5Z" fill="#6D6B6B" fill-opacity="0.98"/>
<path d="M226.878 87V72H230.645C231.589 72 232.4 72.1889 233.078 72.5667C233.756 72.9444 234.278 73.4444 234.645 74.0667C235.023 74.6778 235.211 75.35 235.211 76.0833C235.211 76.9056 234.978 77.6444 234.511 78.3C234.045 78.9556 233.406 79.4389 232.595 79.75L237.628 87H235.411L230.645 80.1H228.778V87H226.878ZM228.778 78.5H230.645C231.289 78.5 231.811 78.3833 232.211 78.15C232.623 77.9056 232.923 77.6 233.111 77.2333C233.311 76.8556 233.411 76.4722 233.411 76.0833C233.411 75.3833 233.156 74.8111 232.645 74.3667C232.145 73.9222 231.478 73.7 230.645 73.7H228.778V78.5Z" fill="#6D6B6B" fill-opacity="0.98"/>
<path d="M242.236 87V72H247.153C248.508 72 249.686 72.2222 250.686 72.6667C251.697 73.1111 252.53 73.7 253.186 74.4333C253.841 75.1667 254.33 75.9778 254.653 76.8667C254.975 77.7444 255.136 78.6222 255.136 79.5C255.136 80.3778 254.975 81.2611 254.653 82.15C254.33 83.0278 253.841 83.8333 253.186 84.5667C252.53 85.3 251.697 85.8889 250.686 86.3333C249.686 86.7778 248.508 87 247.153 87H242.236ZM244.136 85.3H246.953C248.108 85.3 249.08 85.1222 249.869 84.7667C250.658 84.4 251.297 83.9278 251.786 83.35C252.275 82.7611 252.625 82.1278 252.836 81.45C253.058 80.7722 253.169 80.1222 253.169 79.5C253.169 78.8778 253.058 78.2278 252.836 77.55C252.625 76.8722 252.275 76.2444 251.786 75.6667C251.297 75.0778 250.658 74.6056 249.869 74.25C249.08 73.8833 248.108 73.7 246.953 73.7H244.136V85.3Z" fill="#6D6B6B" fill-opacity="0.98"/>
<path d="M260.644 87V72H268.044V73.7H262.544V76.9H266.877V78.6H262.544V85.3H268.044V87H260.644Z" fill="#6D6B6B" fill-opacity="0.98"/>
<path d="M273.594 87V72H277.36C278.305 72 279.116 72.1889 279.794 72.5667C280.472 72.9444 280.994 73.4444 281.36 74.0667C281.738 74.6778 281.927 75.35 281.927 76.0833C281.927 76.9056 281.694 77.6444 281.227 78.3C280.76 78.9556 280.122 79.4389 279.31 79.75L284.344 87H282.127L277.36 80.1H275.494V87H273.594ZM275.494 78.5H277.36C278.005 78.5 278.527 78.3833 278.927 78.15C279.338 77.9056 279.638 77.6 279.827 77.2333C280.027 76.8556 280.127 76.4722 280.127 76.0833C280.127 75.3833 279.872 74.8111 279.36 74.3667C278.86 73.9222 278.194 73.7 277.36 73.7H275.494V78.5Z" fill="#6D6B6B" fill-opacity="0.98"/>
<path d="M292.185 87.2C291.296 87.2 290.49 87.0222 289.768 86.6667C289.057 86.3111 288.49 85.8778 288.068 85.3667L288.618 83.0667C288.929 83.6889 289.396 84.25 290.018 84.75C290.64 85.25 291.385 85.5 292.252 85.5C293.04 85.5 293.69 85.25 294.202 84.75C294.724 84.25 294.985 83.6333 294.985 82.9C294.985 82.3667 294.857 81.9278 294.602 81.5833C294.346 81.2389 294.057 80.9667 293.735 80.7667C293.413 80.5667 293.157 80.4222 292.968 80.3333L291.135 79.4C290.846 79.2444 290.485 79.0278 290.052 78.75C289.629 78.4722 289.257 78.0889 288.935 77.6C288.613 77.1111 288.452 76.4778 288.452 75.7C288.452 74.9444 288.624 74.2722 288.968 73.6833C289.324 73.0944 289.813 72.6333 290.435 72.3C291.068 71.9667 291.79 71.8 292.602 71.8C293.402 71.8 294.107 71.9444 294.718 72.2333C295.329 72.5111 295.807 72.8 296.152 73.1L295.602 75.4C295.324 74.9333 294.913 74.4944 294.368 74.0833C293.824 73.6722 293.207 73.4667 292.518 73.4667C291.852 73.4667 291.318 73.6667 290.918 74.0667C290.518 74.4556 290.318 74.9389 290.318 75.5167C290.318 75.9611 290.418 76.3278 290.618 76.6167C290.829 76.9056 291.063 77.1333 291.318 77.3C291.585 77.4667 291.802 77.5944 291.968 77.6833L293.835 78.6167C294.057 78.7278 294.335 78.8833 294.668 79.0833C295.013 79.2833 295.352 79.55 295.685 79.8833C296.018 80.2056 296.296 80.6056 296.518 81.0833C296.74 81.55 296.852 82.1167 296.852 82.7833C296.852 83.6389 296.646 84.4 296.235 85.0667C295.835 85.7333 295.285 86.2556 294.585 86.6333C293.885 87.0111 293.085 87.2 292.185 87.2Z" fill="#6D6B6B" fill-opacity="0.98"/>
</svg>
